<mxfile host="app.diagrams.net" modified="2024-01-13T10:15:15.955Z" agent="Mozilla/5.0 (Windows NT 10.0; Win64; x64; rv:121.0) Gecko/20100101 Firefox/121.0" version="22.1.18" etag="saLXgPJpAzcWvuYthOJS" type="github">
  <diagram name="Pagina-1" id="PJHqQeVscJE3fAsvbVZz">
    <mxGraphModel>
      <root>
        <mxCell id="0" />
        <mxCell id="1" parent="0" />
      </root>
    </mxGraphModel>
  </diagram>
</mxfile>
